<mxfile host="app.diagrams.net" modified="2023-11-29T06:37:56.033Z" agent="Mozilla/5.0 (Windows NT 10.0; Win64; x64) AppleWebKit/537.36 (KHTML, like Gecko) Chrome/117.0.0.0 Safari/537.36 Edg/117.0.2045.47" etag="EG5S22CB5n-r5NHSINkJ" version="22.1.4" type="device">
  <diagram name="MVP" id="oFgbo3r_jPq-4gisrPJ3">
    <mxGraphModel dx="869" dy="1129" grid="1" gridSize="10" guides="1" tooltips="1" connect="1" arrows="1" fold="1" page="1" pageScale="1" pageWidth="850" pageHeight="1100" math="0" shadow="0" extFonts="Permanent Marker^https://fonts.googleapis.com/css?family=Permanent+Marker">
      <root>
        <mxCell id="JTn1ou_Jw7zlJTYixeUm-0" />
        <mxCell id="JTn1ou_Jw7zlJTYixeUm-1" parent="JTn1ou_Jw7zlJTYixeUm-0" />
        <mxCell id="JTn1ou_Jw7zlJTYixeUm-3" value="Кредит" style="shape=table;startSize=30;container=1;collapsible=1;childLayout=tableLayout;fixedRows=1;rowLines=0;fontStyle=1;align=center;resizeLast=1;" parent="JTn1ou_Jw7zlJTYixeUm-1" vertex="1">
          <mxGeometry x="530" y="290" width="250" height="280" as="geometry" />
        </mxCell>
        <mxCell id="JTn1ou_Jw7zlJTYixeUm-4" value="" style="shape=partialRectangle;collapsible=0;dropTarget=0;pointerEvents=0;fillColor=none;points=[[0,0.5],[1,0.5]];portConstraint=eastwest;top=0;left=0;right=0;bottom=1;" parent="JTn1ou_Jw7zlJTYixeUm-3" vertex="1">
          <mxGeometry y="30" width="250" height="30" as="geometry" />
        </mxCell>
        <mxCell id="JTn1ou_Jw7zlJTYixeUm-5" value="PK" style="shape=partialRectangle;overflow=hidden;connectable=0;fillColor=none;top=0;left=0;bottom=0;right=0;fontStyle=1;" parent="JTn1ou_Jw7zlJTYixeUm-4" vertex="1">
          <mxGeometry width="30" height="30" as="geometry">
            <mxRectangle width="30" height="30" as="alternateBounds" />
          </mxGeometry>
        </mxCell>
        <mxCell id="JTn1ou_Jw7zlJTYixeUm-6" value="Идентификатор кредита" style="shape=partialRectangle;overflow=hidden;connectable=0;fillColor=none;top=0;left=0;bottom=0;right=0;align=left;spacingLeft=6;fontStyle=5;" parent="JTn1ou_Jw7zlJTYixeUm-4" vertex="1">
          <mxGeometry x="30" width="220" height="30" as="geometry">
            <mxRectangle width="220" height="30" as="alternateBounds" />
          </mxGeometry>
        </mxCell>
        <mxCell id="JTn1ou_Jw7zlJTYixeUm-7" value="" style="shape=partialRectangle;collapsible=0;dropTarget=0;pointerEvents=0;fillColor=none;points=[[0,0.5],[1,0.5]];portConstraint=eastwest;top=0;left=0;right=0;bottom=0;" parent="JTn1ou_Jw7zlJTYixeUm-3" vertex="1">
          <mxGeometry y="60" width="250" height="220" as="geometry" />
        </mxCell>
        <mxCell id="JTn1ou_Jw7zlJTYixeUm-8" value="&#xa;&#xa;&#xa;&#xa;&#xa;&#xa;&#xa;&#xa;&#xa;&#xa;&#xa;&#xa;&#xa;&#xa;FK" style="shape=partialRectangle;overflow=hidden;connectable=0;fillColor=none;top=0;left=0;bottom=0;right=0;verticalAlign=top;" parent="JTn1ou_Jw7zlJTYixeUm-7" vertex="1">
          <mxGeometry width="30" height="220" as="geometry">
            <mxRectangle width="30" height="220" as="alternateBounds" />
          </mxGeometry>
        </mxCell>
        <mxCell id="JTn1ou_Jw7zlJTYixeUm-9" value="Наименование кредита&#xa;Статус активности продукта&#xa;Ссылка на страницу Заявки&#xa;Минимальная сумма&#xa;Максимальная сумма&#xa;Минимальная процентная ставка&#xa;Минимальный срок&#xa;Максимальный срок&#xa;Тип платежа&#xa;Наличие залога&#xa;Возможность рассмотрения on-line&#xa;Получение без посещения банка&#xa;Наличие страховки&#xa;&#xa;БИК" style="shape=partialRectangle;overflow=hidden;connectable=0;fillColor=none;top=0;left=0;bottom=0;right=0;align=left;spacingLeft=6;verticalAlign=top;" parent="JTn1ou_Jw7zlJTYixeUm-7" vertex="1">
          <mxGeometry x="30" width="220" height="220" as="geometry">
            <mxRectangle width="220" height="220" as="alternateBounds" />
          </mxGeometry>
        </mxCell>
        <mxCell id="JTn1ou_Jw7zlJTYixeUm-10" value="Банк" style="shape=table;startSize=30;container=1;collapsible=1;childLayout=tableLayout;fixedRows=1;rowLines=0;fontStyle=1;align=center;resizeLast=1;" parent="JTn1ou_Jw7zlJTYixeUm-1" vertex="1">
          <mxGeometry x="190" y="20" width="250" height="170" as="geometry" />
        </mxCell>
        <mxCell id="JTn1ou_Jw7zlJTYixeUm-11" value="" style="shape=partialRectangle;collapsible=0;dropTarget=0;pointerEvents=0;fillColor=none;points=[[0,0.5],[1,0.5]];portConstraint=eastwest;top=0;left=0;right=0;bottom=1;" parent="JTn1ou_Jw7zlJTYixeUm-10" vertex="1">
          <mxGeometry y="30" width="250" height="30" as="geometry" />
        </mxCell>
        <mxCell id="JTn1ou_Jw7zlJTYixeUm-12" value="PK" style="shape=partialRectangle;overflow=hidden;connectable=0;fillColor=none;top=0;left=0;bottom=0;right=0;fontStyle=1;" parent="JTn1ou_Jw7zlJTYixeUm-11" vertex="1">
          <mxGeometry width="30" height="30" as="geometry">
            <mxRectangle width="30" height="30" as="alternateBounds" />
          </mxGeometry>
        </mxCell>
        <mxCell id="JTn1ou_Jw7zlJTYixeUm-13" value="БИК" style="shape=partialRectangle;overflow=hidden;connectable=0;fillColor=none;top=0;left=0;bottom=0;right=0;align=left;spacingLeft=6;fontStyle=5;" parent="JTn1ou_Jw7zlJTYixeUm-11" vertex="1">
          <mxGeometry x="30" width="220" height="30" as="geometry">
            <mxRectangle width="220" height="30" as="alternateBounds" />
          </mxGeometry>
        </mxCell>
        <mxCell id="JTn1ou_Jw7zlJTYixeUm-14" value="" style="shape=partialRectangle;collapsible=0;dropTarget=0;pointerEvents=0;fillColor=none;points=[[0,0.5],[1,0.5]];portConstraint=eastwest;top=0;left=0;right=0;bottom=0;" parent="JTn1ou_Jw7zlJTYixeUm-10" vertex="1">
          <mxGeometry y="60" width="250" height="110" as="geometry" />
        </mxCell>
        <mxCell id="JTn1ou_Jw7zlJTYixeUm-15" value="&#xa;&#xa;&#xa;" style="shape=partialRectangle;overflow=hidden;connectable=0;fillColor=none;top=0;left=0;bottom=0;right=0;" parent="JTn1ou_Jw7zlJTYixeUm-14" vertex="1">
          <mxGeometry width="30" height="110" as="geometry">
            <mxRectangle width="30" height="110" as="alternateBounds" />
          </mxGeometry>
        </mxCell>
        <mxCell id="JTn1ou_Jw7zlJTYixeUm-16" value="Наименование банка&#xa;Наименование юридического лица&#xa;Описание банка&#xa;Логотип&#xa;URL&#xa;" style="shape=partialRectangle;overflow=hidden;connectable=0;fillColor=none;top=0;left=0;bottom=0;right=0;align=left;spacingLeft=6;verticalAlign=top;" parent="JTn1ou_Jw7zlJTYixeUm-14" vertex="1">
          <mxGeometry x="30" width="220" height="110" as="geometry">
            <mxRectangle width="220" height="110" as="alternateBounds" />
          </mxGeometry>
        </mxCell>
        <mxCell id="JTn1ou_Jw7zlJTYixeUm-17" value="Вклад" style="shape=table;startSize=30;container=1;collapsible=1;childLayout=tableLayout;fixedRows=1;rowLines=0;fontStyle=1;align=center;resizeLast=1;" parent="JTn1ou_Jw7zlJTYixeUm-1" vertex="1">
          <mxGeometry x="80" y="280" width="250" height="280" as="geometry" />
        </mxCell>
        <mxCell id="JTn1ou_Jw7zlJTYixeUm-18" value="" style="shape=partialRectangle;collapsible=0;dropTarget=0;pointerEvents=0;fillColor=none;points=[[0,0.5],[1,0.5]];portConstraint=eastwest;top=0;left=0;right=0;bottom=1;" parent="JTn1ou_Jw7zlJTYixeUm-17" vertex="1">
          <mxGeometry y="30" width="250" height="30" as="geometry" />
        </mxCell>
        <mxCell id="JTn1ou_Jw7zlJTYixeUm-19" value="PK" style="shape=partialRectangle;overflow=hidden;connectable=0;fillColor=none;top=0;left=0;bottom=0;right=0;fontStyle=1;" parent="JTn1ou_Jw7zlJTYixeUm-18" vertex="1">
          <mxGeometry width="30" height="30" as="geometry">
            <mxRectangle width="30" height="30" as="alternateBounds" />
          </mxGeometry>
        </mxCell>
        <mxCell id="JTn1ou_Jw7zlJTYixeUm-20" value="Идентификатор вклада" style="shape=partialRectangle;overflow=hidden;connectable=0;fillColor=none;top=0;left=0;bottom=0;right=0;align=left;spacingLeft=6;fontStyle=5;" parent="JTn1ou_Jw7zlJTYixeUm-18" vertex="1">
          <mxGeometry x="30" width="220" height="30" as="geometry">
            <mxRectangle width="220" height="30" as="alternateBounds" />
          </mxGeometry>
        </mxCell>
        <mxCell id="JTn1ou_Jw7zlJTYixeUm-21" value="" style="shape=partialRectangle;collapsible=0;dropTarget=0;pointerEvents=0;fillColor=none;points=[[0,0.5],[1,0.5]];portConstraint=eastwest;top=0;left=0;right=0;bottom=0;" parent="JTn1ou_Jw7zlJTYixeUm-17" vertex="1">
          <mxGeometry y="60" width="250" height="220" as="geometry" />
        </mxCell>
        <mxCell id="JTn1ou_Jw7zlJTYixeUm-22" value="&#xa;&#xa;&#xa;&#xa;&#xa;&#xa;&#xa;&#xa;&#xa;&#xa;&#xa;&#xa;&#xa;&#xa;FK" style="shape=partialRectangle;overflow=hidden;connectable=0;fillColor=none;top=0;left=0;bottom=0;right=0;verticalAlign=top;" parent="JTn1ou_Jw7zlJTYixeUm-21" vertex="1">
          <mxGeometry width="30" height="220" as="geometry">
            <mxRectangle width="30" height="220" as="alternateBounds" />
          </mxGeometry>
        </mxCell>
        <mxCell id="JTn1ou_Jw7zlJTYixeUm-23" value="Наименование вклада&#xa;Статус активности продукта&#xa;Минимальная сумма&#xa;Максимальная сумма&#xa;Валюта&#xa;Минимальная процентная ставка&#xa;Максимальная процентная ставка&#xa;Минимальный срок&#xa;Максимальный срок&#xa;Выплата процентов&#xa;Капитализация&#xa;Возможность пополнения&#xa;Возможность частичного снятия&#xa;&#xa;БИК" style="shape=partialRectangle;overflow=hidden;connectable=0;fillColor=none;top=0;left=0;bottom=0;right=0;align=left;spacingLeft=6;verticalAlign=top;" parent="JTn1ou_Jw7zlJTYixeUm-21" vertex="1">
          <mxGeometry x="30" width="220" height="220" as="geometry">
            <mxRectangle width="220" height="220" as="alternateBounds" />
          </mxGeometry>
        </mxCell>
        <mxCell id="JTn1ou_Jw7zlJTYixeUm-46" value="" style="edgeStyle=orthogonalEdgeStyle;fontSize=12;html=1;endArrow=ERzeroToMany;startArrow=ERmandOne;rounded=0;movable=1;resizable=1;rotatable=1;deletable=1;editable=1;connectable=1;" parent="JTn1ou_Jw7zlJTYixeUm-1" source="JTn1ou_Jw7zlJTYixeUm-10" target="JTn1ou_Jw7zlJTYixeUm-21" edge="1">
          <mxGeometry width="100" height="100" relative="1" as="geometry">
            <mxPoint x="370" y="410" as="sourcePoint" />
            <mxPoint x="470" y="310" as="targetPoint" />
            <Array as="points">
              <mxPoint x="20" y="110" />
              <mxPoint x="20" y="450" />
            </Array>
          </mxGeometry>
        </mxCell>
        <mxCell id="JTn1ou_Jw7zlJTYixeUm-48" value="" style="edgeStyle=entityRelationEdgeStyle;fontSize=12;html=1;endArrow=ERoneToMany;startArrow=ERmandOne;rounded=0;sketch=0;entryX=1;entryY=0.838;entryDx=0;entryDy=0;entryPerimeter=0;" parent="JTn1ou_Jw7zlJTYixeUm-1" source="JTn1ou_Jw7zlJTYixeUm-18" target="yyzdUcEB1NdUSFuFGxYP-40" edge="1">
          <mxGeometry width="100" height="100" relative="1" as="geometry">
            <mxPoint x="370" y="910" as="sourcePoint" />
            <mxPoint x="295" y="850" as="targetPoint" />
          </mxGeometry>
        </mxCell>
        <mxCell id="yyzdUcEB1NdUSFuFGxYP-0" value="* Вклад - Вклад с выплатой % в конце срока. Без капитализации %. Без возможности пополнения. Без возможности снятия части средств&amp;nbsp;" style="text;html=1;strokeColor=none;fillColor=none;align=left;verticalAlign=middle;whiteSpace=wrap;rounded=0;" parent="JTn1ou_Jw7zlJTYixeUm-1" vertex="1">
          <mxGeometry x="40" y="960" width="550" height="30" as="geometry" />
        </mxCell>
        <mxCell id="yyzdUcEB1NdUSFuFGxYP-1" value="&lt;font style=&quot;font-size: 14px;&quot;&gt;&lt;b&gt;В рамках MVP:&lt;/b&gt;&lt;/font&gt;" style="text;html=1;strokeColor=none;fillColor=none;align=center;verticalAlign=middle;whiteSpace=wrap;rounded=0;" parent="JTn1ou_Jw7zlJTYixeUm-1" vertex="1">
          <mxGeometry x="30" y="920" width="130" height="30" as="geometry" />
        </mxCell>
        <mxCell id="yyzdUcEB1NdUSFuFGxYP-2" value="* Кредит - Кредит с аннуитетным платежом, фиксированным %. Без залога.&amp;nbsp; Без страховки. С Рассмотрением on-line. С получением в банке" style="text;html=1;strokeColor=none;fillColor=none;align=left;verticalAlign=middle;whiteSpace=wrap;rounded=0;" parent="JTn1ou_Jw7zlJTYixeUm-1" vertex="1">
          <mxGeometry x="40" y="1010" width="550" height="30" as="geometry" />
        </mxCell>
        <mxCell id="yyzdUcEB1NdUSFuFGxYP-26" value="" style="edgeStyle=orthogonalEdgeStyle;fontSize=12;html=1;endArrow=ERzeroToMany;startArrow=ERmandOne;rounded=0;exitX=1.008;exitY=0.282;exitDx=0;exitDy=0;entryX=-0.012;entryY=0.618;entryDx=0;entryDy=0;exitPerimeter=0;entryPerimeter=0;" parent="JTn1ou_Jw7zlJTYixeUm-1" source="JTn1ou_Jw7zlJTYixeUm-14" target="JTn1ou_Jw7zlJTYixeUm-7" edge="1">
          <mxGeometry width="100" height="100" relative="1" as="geometry">
            <mxPoint x="790" y="345" as="sourcePoint" />
            <mxPoint x="760" y="800" as="targetPoint" />
            <Array as="points">
              <mxPoint x="480" y="111" />
              <mxPoint x="480" y="486" />
            </Array>
          </mxGeometry>
        </mxCell>
        <mxCell id="yyzdUcEB1NdUSFuFGxYP-36" value="Вклад % ставка" style="shape=table;startSize=30;container=1;collapsible=1;childLayout=tableLayout;fixedRows=1;rowLines=0;fontStyle=1;align=center;resizeLast=1;" parent="JTn1ou_Jw7zlJTYixeUm-1" vertex="1">
          <mxGeometry x="80" y="640" width="250" height="190" as="geometry" />
        </mxCell>
        <mxCell id="yyzdUcEB1NdUSFuFGxYP-37" value="" style="shape=partialRectangle;collapsible=0;dropTarget=0;pointerEvents=0;fillColor=none;points=[[0,0.5],[1,0.5]];portConstraint=eastwest;top=0;left=0;right=0;bottom=1;" parent="yyzdUcEB1NdUSFuFGxYP-36" vertex="1">
          <mxGeometry y="30" width="250" height="30" as="geometry" />
        </mxCell>
        <mxCell id="yyzdUcEB1NdUSFuFGxYP-38" value="PK" style="shape=partialRectangle;overflow=hidden;connectable=0;fillColor=none;top=0;left=0;bottom=0;right=0;fontStyle=1;" parent="yyzdUcEB1NdUSFuFGxYP-37" vertex="1">
          <mxGeometry width="30" height="30" as="geometry">
            <mxRectangle width="30" height="30" as="alternateBounds" />
          </mxGeometry>
        </mxCell>
        <mxCell id="yyzdUcEB1NdUSFuFGxYP-39" value="Идентификатор" style="shape=partialRectangle;overflow=hidden;connectable=0;fillColor=none;top=0;left=0;bottom=0;right=0;align=left;spacingLeft=6;fontStyle=5;" parent="yyzdUcEB1NdUSFuFGxYP-37" vertex="1">
          <mxGeometry x="30" width="220" height="30" as="geometry">
            <mxRectangle width="220" height="30" as="alternateBounds" />
          </mxGeometry>
        </mxCell>
        <mxCell id="yyzdUcEB1NdUSFuFGxYP-40" value="" style="shape=partialRectangle;collapsible=0;dropTarget=0;pointerEvents=0;fillColor=none;points=[[0,0.5],[1,0.5]];portConstraint=eastwest;top=0;left=0;right=0;bottom=0;" parent="yyzdUcEB1NdUSFuFGxYP-36" vertex="1">
          <mxGeometry y="60" width="250" height="130" as="geometry" />
        </mxCell>
        <mxCell id="yyzdUcEB1NdUSFuFGxYP-41" value="&#xa;&#xa;&#xa;&#xa;&#xa;&#xa;&#xa;FK" style="shape=partialRectangle;overflow=hidden;connectable=0;fillColor=none;top=0;left=0;bottom=0;right=0;verticalAlign=top;" parent="yyzdUcEB1NdUSFuFGxYP-40" vertex="1">
          <mxGeometry width="30" height="130" as="geometry">
            <mxRectangle width="30" height="130" as="alternateBounds" />
          </mxGeometry>
        </mxCell>
        <mxCell id="yyzdUcEB1NdUSFuFGxYP-42" value="Ставка&#xa;Минимальная сумма&#xa;Максимальная сумма&#xa;Минимальный срок&#xa;Максимальный срок&#xa;&#xa;&#xa;Идентификатор вклада" style="shape=partialRectangle;overflow=hidden;connectable=0;fillColor=none;top=0;left=0;bottom=0;right=0;align=left;spacingLeft=6;verticalAlign=top;" parent="yyzdUcEB1NdUSFuFGxYP-40" vertex="1">
          <mxGeometry x="30" width="220" height="130" as="geometry">
            <mxRectangle width="220" height="130" as="alternateBounds" />
          </mxGeometry>
        </mxCell>
        <mxCell id="qfsdI8cPYu-ivXsN0023-0" value="* Без &quot;подключения&quot; к банку и данных зарегистрированного пользователя, % по кредиту и ежемесячный платеж считается по алгоритму на стороне Платформы" style="text;html=1;strokeColor=none;fillColor=none;align=left;verticalAlign=middle;whiteSpace=wrap;rounded=0;" parent="JTn1ou_Jw7zlJTYixeUm-1" vertex="1">
          <mxGeometry x="40" y="1060" width="550" height="30" as="geometry" />
        </mxCell>
      </root>
    </mxGraphModel>
  </diagram>
</mxfile>
